# xmcd
# 
# Track frame offsets:
#     150
#     22087
#     48943
#     85906
#     114787
#     137670
# 
# Disc length: 2249
# 
# Revision: 0
# Processed by: cddbd v1.5.2PL0 Copyright (c) Steve Scherf et al.
# Submitted via: fre:ac v1.1beta1pre4
# 
DISCID=4308c706
DTITLE=Machnamh - Demo 2017
DYEAR=2017
DGENRE=Celtic
TTITLE0=Three jigs
TTITLE1=Bank of Isère
TTITLE2=Three reels
TTITLE3=Song for Orwin
TTITLE4=Funky set
TTITLE5=Foot in the middle
EXTD=
EXTT0=
EXTT1=
EXTT2=
EXTT3=
EXTT4=
EXTT5=
PLAYORDER=
